<svg xmlns="http://www.w3.org/2000/svg" width="234.874" height="256.495" viewBox="0 0 234.874 256.495">
  <g id="Groupe_4104" data-name="Groupe 4104" transform="translate(-974 -493.823)">
    <g id="Groupe_4098" data-name="Groupe 4098" transform="translate(974 678.372)">
      <path id="Tracé_11370" data-name="Tracé 11370" d="M22.247,239.573c2.279.356,1.382-.206,1.856-1.251.916-2.022,6.02-17.418,6.053-18.749.026-1.034-2.413-7.5-3.065-8.43-1.7-2.424-4.367-.734-3.959-3.6,4.281.273,9.866-1.361,12.875,2.685,2.4,3.229,9.136,29.35,10.7,29.348,3.132-9.174,7.7-19.108,8.291-28.733l-2.508-3.3,9.782,0-4.248,6.867L47.059,249.261c-1.921.121-5.317.727-6.585-.79-1.819-2.175-5.962-18.4-7.618-22.632-.364-.931-.328-2.146-1.712-2.281L23.22,248.806l-6.174.4c-1.662-.995-10.125-31.562-12.807-36.559-1.531-2.851-4.2-2.367-4.239-5.1,4.1.352,9.37-1.421,12.331,2.34,4.176,5.3,7.059,22.746,9.916,29.686" transform="translate(0 -207.43)" fill="#182f7c"/>
      <path id="Tracé_11371" data-name="Tracé 11371" d="M130.1,243.589c.367,2.07,2.5,4.053,3.559,5.774h-9.787c1.763-2.2,3.008-1.663,3.479-4.932.819-5.687.9-25.463.12-31.132a4.7,4.7,0,0,0-.841-2.724c-1.311-1.679-4.36-.237-3.643-3.014l12.07.822,22.624,29.423V211.56c0-1.432-4.443-1.6-3.554-4H163.9c.222,2.46-3.554,2.845-3.554,5.779v36.033l-5.153-.2c-7.523-9.336-14.627-21.607-22.588-30.337-.8-.873-.793-1.9-2.508-1.5.978,7.851-1.32,18.813,0,26.246" transform="translate(-13.554 -207.444)" fill="#182f7c"/>
      <path id="Tracé_11372" data-name="Tracé 11372" d="M211.693,207.556l-23.132,40.036h13.79a53.312,53.312,0,0,0,5.754-3.143c1.743-1.323,1.939-4.144,4.474-3.969l-3.11,8.892H176.995l24.022-39.146h-14.68c-1.7,0-5.642,5.465-7.553,6.228l2.215-8.9Z" transform="translate(-19.524 -207.444)" fill="#182f7c"/>
      <path id="Tracé_11373" data-name="Tracé 11373" d="M108.245,207.556l2.666,8.892c-3.682-.553-4.916-5.195-8.636-6.035-3.553-.8-8.122.18-11.823-.188v16.9h15.125l-1.335,2.669H90.451v14.68c0,4.264,12.729,3.01,15.974.849,2.044-1.361,2.4-5.022,5.375-4.848-.243,2.234-1.036,8-3.254,8.748-3.1,1.05-22.543.534-24.962-1.885-4.175-4.175-.961-26.795-2.087-33.943-.637-4.044-3.2-2.727-3.5-5.843Z" transform="translate(-8.603 -207.444)" fill="#182f7c"/>
      <path id="Tracé_11374" data-name="Tracé 11374" d="M254.8,207.556l3.105,8.9c-1.911-.762-5.856-6.228-7.553-6.228h-12.9v16.9h15.125l0,1.765c-.851-.225-1.889.9-2.22.9h-12.9v13.79c0,2.709,7.657,4.21,10.134,3.947,6.068-.646,7.274-5.1,12.109-7.052l-3.271,8.92c-6.211-1.052-21.708,2.382-25.712-2.633-4.728-5.922-.649-26.223-2.174-34.3-.658-3.482-3.872-1.9-3.541-4.915Z" transform="translate(-24.816 -207.444)" fill="#182f7c"/>
    </g>
    <g id="Groupe_4100" data-name="Groupe 4100" transform="translate(1011.073 493.823)">
      <path id="Tracé_11366" data-name="Tracé 11366" d="M82.018,30.561c.4.4-3.989,9.82-4.392,10.278-1.579,1.8-9.043,4.684-12.054,7.52-6.982,6.574-8.144,14.171-4.909,23.123l-4.431-8c-.766,9.546.778,18.879,7.1,26.251,1.375,1.223.875-.9.9-1.776.15-5.938-.312-8.965,2.309-14.607,1.138-2.448,4.118-5.1,4.629-7.868.786-4.265-2.76-7.447,2.838-10.013-.733,5.468,1.958,11.881,1.617,17.108-.043.644-.493,2.733-1.6,2.458-1.036-1.662.214-6.046-2.667-5.328-4.341,7.631-7.153,14.066-4.452,23.128l9.328-17.789C81.628,90.613,96.151,98,104.407,111.39c7.763-2.283,13.8-4.638,22.1-2.531l-10.868,2.019-7.808,3.323c-.643.882,5.525,8.724,8.91,7.638,1.536-.493,10.284-6.321,11.973-7.672A52.379,52.379,0,0,0,135.777,107c.94-1.254,6.334-12.562,8.525-10.594-4.73,6.265-3.718,12.388-8.918,19.1-21.119,27.251-62.664,20.465-82.2-4.949C28.91,78.97,46.328,41.3,82.018,30.561M48.206,80.375,50.875,61.7c-1.292-.015-1.72,2.715-2.023,3.746a37.117,37.117,0,0,0-1.528,11.827c.033,1.072-.658,3.314.882,3.1m2.678-6.668c-.52,3.723,0,9.329,0,13.345,0,3.234,5.539,13.354,7.643,16.378,6.746,9.7,22.795,22.084,35.06,16.974-1.451-2.878-4.282-5.327-5.386-8.392-1.154-3.2-.713-7.322-2.242-10.214-1.716-3.246-8-6.508-7.5-11.635-1.984-.324-2.145.2-1.626,2.075,1.815,6.582,11.36,14.272,8.745,23.724l-3.105-7.985c-2.363,1.665-1.133,3.224-.8,5.229.246,1.47,1.09,2.859-1,1-.52-7.012.286-11.756-5.328-16.914-2.032,5.982-1.651,12.537-.449,18.679-.306.388-7.606-4.974-8.058-5.717-2.463-4.046,1.134-8.207-.118-12.336-.533-1.757-5.387-5.369-6.918-7.324a32.808,32.808,0,0,1-7.148-19.1c-.9-.325-1.72,1.857-1.77,2.22M89.15,105.291c-.38,2.86,3.166,14.058,6.65,13.342.992-.2,1.475-1.411.915-2.663-1.462-3.272-4.774-8.419-7.565-10.679m-1.788,22.242h14.68c.19,0,3.882-.849,3.107-2.212-5.408-6.964-5.456-2.77-10.449-.683-2.528,1.056-5.953.467-7.337,2.9" transform="translate(-41.922 -3.371)" fill="#182f7c"/>
      <path id="Tracé_11367" data-name="Tracé 11367" d="M102.259,81.012c-.041.356-1.391,4.128-1.391,4.128s.1-14.884-3.5-20.569L89.813,70.78c-.042-3.225-2.633-6.768-1.816-10.045.248-.993,4.719-2.195,4.356-4.47-3.73-4.634-4.9-9.86-4.338-15.734-1.795.345-1.448,1.888-1.766,3.118C82.177,59.435,90.714,78.385,101.374,89.9c1.043,1.126,12.194,9.472,10.662,11.126-8.615-5.806-16.084-8.435-22.6-16.984C70.18,58.789,83.057,21.7,109.107,6.9c31.5-17.892,70.37.716,75.885,36.3-2.168-1.8-8.146-4.145-9.756-5.805-3.834-3.956-3.808-11.255-11.645-16.825-8.836-6.28-26.91-8.936-35.532-1.4,7.222-1.1,13.316,3.174,19.573,5.338l-1.339-3.545c3.4,4.6,9.413,5.96,12.9,9.782H142.74c-1.435,0-2.988.988-4-1.77l8-1.778c-6.887-3-13.525-7.894-21.6-6.042-1.394.319-4.869,2.554-2.849,3.359,5.784.9,12.765,3.256,16.448,8-15.069,2.6-23.765,14-33.316,24.551-1.022,1.13-4.223,3.314-4.552,3.92-.982,1.812,1.043,2.965,1.391,7.971a56.471,56.471,0,0,1,0,12.055m55.161-68.96c-5.929-5.407-15.312-6.762-23.128-6.21l15.127,3.1ZM117.383,30.744H99.59c-.424-1.473,4.61-7.908,5.077-8.023,3.007-.738,8,.8,11.2-.163,1.264-.38,5.517-4.706,7.454-5.892a39.14,39.14,0,0,1,19.856-5.5c-.411-1.329-4.589-1.666-5.791-1.76-16.928-1.327-31.3,6.024-39.953,20.523-4.617,7.74-7.613,14.917-1.817,23.088l14.64-11.6c.259-1.532-2.145-.948-2.924-.7-3.188,1.014-5.32,4.522-9.521,3.372l7.109-4.889-6.223.44c3.814-4.808,12.57-.683,17.979-3-.859-2.141,2.371-.064,1.708-3.22Z" transform="translate(-46.143 0)" fill="#182f7c"/>
      <path id="Tracé_11368" data-name="Tracé 11368" d="M73,131.839c.4-.393,9.642,3.909,10.261,4.41,1.9,1.541,4.327,8.031,7.052,10.741,9.925,9.87,30.726,11.215,41.4,1.757-7.1.882-12.9-1.509-19.12-4.465l1.776,4.452c-3.613-4.914-11.253-4.623-14.684-8.884,5.609,1.4,14.425-5.008,17.794.872l-6.222.887c7.887,3.151,17.393,9.541,24.905,2.69-6.642-.646-13.309-2.609-18.666-6.682,16.217-6.53,24.782-20.25,36.936-31.613.988-2.372-5.107-14.349-.917-17.761l4.012,14.228,5.315-3.554,2.747,9.207-2.643,2.641,4.346,11.277c2.73-14.481-3.763-28.959-12.965-39.958-3.161-3.779-7.288-6.089-10.162-9.411-.866-1-2.141-1.466-1.766-3.118,4.948,3.333,10.359,4.63,15.127,8.441,28.814,23.037,14.735,68.738-14.54,84.236-29.317,15.521-60.754.4-69.987-30.395m77.4-9.8,9.381-3.539c1.1-1.767-.271-3.575-.5-5.352-.506-.384-10.277,7.594-8.881,8.891m10.667-1.77-17.782,8.014c-.259,1.532,2.143.948,2.924.7,2.961-.939,4.921-4.213,8.631-3.372l-5.314,3.567,1.264,1.721,4.944-2.618c-5.352,7.933-15.612.9-22.238,7.558,7.364,2.271,14.925,1.352,22.237-.441l-5.525,8.692c-9.792-1.874-11.669,5.171-18.771,9.263a38.417,38.417,0,0,1-14.845,4.719c1.64,1.9,4.488,1.455,6.706,1.381,19.524-.65,38.192-19.59,37.769-39.184m-39.146,41.82-17.785-1.779c-.211,1.281,1.546,1.2,2.481,1.5,4.135,1.319,7.891,1.351,12.2,1.159,1.084-.049,3.305.678,3.1-.879" transform="translate(-45.35 -7.672)" fill="#182f7c"/>
      <path id="Tracé_11369" data-name="Tracé 11369" d="M190.354,52.874c8.834,8.92,18.341,26.568,18.172,39.292-.269,20.3-20.3,36.669-37.426,44.028,1.346-2.254,2.713-10.038,3.774-11.342.337-.415,7.074-3.8,9.139-5.541,12.418-10.5,15.55-28.448,3.1-40.058.835,5.868,1.252,11.189-.9,16.9l3.553-.441c-5.892,3.617-5.68,11.048-11.553,13.795,1.339-4.784-3.324-11.881.87-15.123l1.341,8a29.554,29.554,0,0,0,4.889-24.9l-6.366,13.639-3.4,2.368c-4.5-16.527-21.105-23.154-29.37-36.984-.849-.535-7.043,2.1-9.355,2.277-3.99.3-7.244-.771-11.106-.887l16.522-4.4-3.178-7.148c2.476-.285,4.942-2.19,7.518-1.819,2.059.3,2.865,2.825,4.325,2.591.772-.124,2.491-1.96,3.819-2.47,4.369-1.676,7.261-2.151,11.911-1.423-14.953-6.394-30.912,2.58-42.629,11.634-5.441,4.206-15.6,17.373-15.6,17.373s.415-2.992.61-3.887c2.679-12.325,15.614-24.507,27.143-28.914,18.865-7.211,40.284-.6,54.193,13.444M173.76,54.342v13.79l3.547,5.776c1.729-5.105,1.439-10.342,1.787-15.579.089-1.327-.677-2.571,1.327-2.2,1.318,1.874,6,4.982,6.543,6.867.87,3.034-2.027,6.832-.283,10.906.749,1.749,5.042,4.268,6.149,6.3l5.841,9.719C197.507,79,195.017,69.645,187.976,61.034c-5.192-6.351-17.75-15.148-26.25-13.82-1.3.2-1.442-.522-1.342,1.359.056,1.057,4.916,16.264,5.566,17.582,1.766,3.582,7.006,7.721,8.269,12.2,1.723,1.9,1.63.513.959-.958-3.132-6.872-8.674-15.513-6.476-23.228.262-.919.2-2.7,1.492-2.487-.748,3.443-2.068,9.8,2.673,10.667ZM158.627,49c-9.386.335-.25,11.632,3.558,14.236Zm43.593,53.377a42.981,42.981,0,0,0,1.78-16l-1.749,6.69c.4,2.258-.478,4.439-.656,6.469-.087.983-1.059,3.024.625,2.846" transform="translate(-48.248 -4.024)" fill="#182f7c"/>
      <path id="Tracé_11375" data-name="Tracé 11375" d="M170.128,159.135c5.561-2.049,12.409-10.733,12.409-10.733a3.567,3.567,0,0,0,4.156,1.823c2.723-.818,7.456-2.638,7.456-2.638s-25.715,20.185-40.746,23.747c-1.189.281-6.035,1.966-6.4.277a53.557,53.557,0,0,0,16.426-9.824c3.776-3.295,6.242-7.631,9.836-10.626,5.149-4.289,13.244-7.75,19.023-12.112,5.926-4.472,11.088-10.029,16.087-15.492-1.616,3.994-3.718,9.566-6.045,13.074-6.577,9.914-27.092,9.21-32.2,22.5" transform="translate(-53.513 -13.629)" fill="#182f7c"/>
      <path id="Tracé_11376" data-name="Tracé 11376" d="M204.342,39.518c.161-2.575-1.529-4.695-2.34-6.994-.527-1.494-.8-2.827,1.023-1.023,9.976,9.877,15.6,33.4,15.548,47.163L209.51,60.606c-8.626-9.379-10.406-21.528-16.576-32.357A58.166,58.166,0,0,0,183,15.051l7.408,4.158c9.508,4.355,2.835,18.959,13.935,20.309m5.9,14.277c-.695-5.567-.921-13.563-8.567-12.485,1.254,4.408,7.468,16.78,9.885,16.249" transform="translate(-57.484 -1.66)" fill="#182f7c"/>
      <path id="Tracé_11377" data-name="Tracé 11377" d="M70.347,144.249c3.987,6.355,8.191,12.707,13.981,17.618.786.666,2.883,1.749.166,1.617-2.38-2.029-8.418-3.6-10.221-5.8-2.128-2.6-1.651-10.064-6.263-12.491l-3.544,1.4c3.1-7.352-2.5-9.572-5.358-15.118-1.86-.027-.55,3.4-.27,4.279,1.546,4.863,4.425,9.324,6.518,13.944l-6.086-6.369C51.938,132.271,45.4,119.966,44,106.561c1.956,1.279,2.306,4.6,3.528,6.69,4.92,8.4,13.483,14.152,17.66,21.486,2.025,3.555,2.932,5.969,5.154,9.512" transform="translate(-42.152 -11.754)" fill="#182f7c"/>
      <path id="Tracé_11378" data-name="Tracé 11378" d="M113.491,1.566,101.65,7.95C94.891,11.572,90,20.154,84.078,24.186c-5.009,3.411-12.416,5.452-18.2,9.377-4.616,3.131-8.529,7.244-12.869,10.7.668-1.892,2.418-7.352,3.555-8.447,1.62-1.56,5.134-1.109,7.449-2.338,2.247-1.193,3.3-4.623,4.7-5.085,1.52-.5,3.484.039,5.6-.632,4.815-1.53,10.237-8.537,13.385-12.417-1.716-.254-9.425,3.213-10.651,4.474-1.456,1.5-1.189,4.4-3.14,5.757l-.881-4.44L62.783,27.349C75.414,12.566,94.326,4.009,113.491,1.566" transform="translate(-43.144 -0.173)" fill="#182f7c"/>
    </g>
    <path id="Tracé_13988" data-name="Tracé 13988" d="M-101.944-13.518v12.06h6.786V-3.726h-3.848v-9.793Zm19.293,4.69a1.657,1.657,0,0,1,1.8,1.649h-3.677A1.817,1.817,0,0,1-82.651-8.828Zm4.587,4.192h-3.127a1.562,1.562,0,0,1-1.529.928,1.777,1.777,0,0,1-1.821-1.838h6.649a7.425,7.425,0,0,0,.052-.859,4.517,4.517,0,0,0-4.776-4.776,4.6,4.6,0,0,0-4.845,4.931A4.622,4.622,0,0,0-82.617-1.32,4.48,4.48,0,0,0-78.064-4.636Zm20.616-7.4a1.617,1.617,0,0,0,1.735-1.581,1.62,1.62,0,0,0-1.735-1.6,1.625,1.625,0,0,0-1.752,1.6A1.623,1.623,0,0,0-57.448-12.041Zm-1.46,1V-.187c0,.567-.241.807-.893.807h-.7V3.112h1.151c1.993,0,3.384-.842,3.384-3.333V-11.044Zm21.389,0h-2.938v5.206a1.785,1.785,0,0,1-1.855,2.027,1.789,1.789,0,0,1-1.838-2.027v-5.206h-2.921v5.6c0,2.56,1.495,4.089,3.711,4.089a3.493,3.493,0,0,0,2.9-1.409v1.306h2.938Zm16.768,6.8c-.052-3.573-5.24-2.491-5.24-4.02,0-.464.378-.739,1.065-.739a1.264,1.264,0,0,1,1.409,1.082H-20.8c-.189-1.89-1.563-3.264-4.037-3.264-2.508,0-3.9,1.34-3.9,2.972,0,3.522,5.223,2.405,5.223,3.951,0,.429-.4.773-1.151.773A1.346,1.346,0,0,1-26.147-4.6h-2.9c.137,1.855,1.855,3.281,4.415,3.281C-22.229-1.32-20.752-2.575-20.752-4.241Zm9.14-.55c0,2.491,1.392,3.333,3.384,3.333h1.495V-3.949H-7.781c-.653,0-.893-.241-.893-.807V-8.6H-6.75v-2.44H-8.674v-2.336h-2.938v2.336h-1.168V-8.6h1.168ZM6-8.828A1.657,1.657,0,0,1,7.8-7.179H4.125A1.817,1.817,0,0,1,6-8.828Zm4.587,4.192H7.457a1.562,1.562,0,0,1-1.529.928A1.777,1.777,0,0,1,4.107-5.547h6.649a7.424,7.424,0,0,0,.052-.859,4.517,4.517,0,0,0-4.776-4.776A4.6,4.6,0,0,0,1.187-6.251,4.622,4.622,0,0,0,6.032-1.32,4.48,4.48,0,0,0,10.584-4.636ZM32.678-9.687v-1.357H29.74V3.112h2.938V-2.8A3.448,3.448,0,0,0,35.633-1.32c2.354,0,4.226-1.924,4.226-4.948s-1.873-4.913-4.226-4.913A3.38,3.38,0,0,0,32.678-9.687ZM36.87-6.268A2.168,2.168,0,0,1,34.756-3.88a2.15,2.15,0,0,1-2.1-2.371,2.15,2.15,0,0,1,2.1-2.371A2.137,2.137,0,0,1,36.87-6.268Zm14.345.361c0-1.649.807-2.13,2.2-2.13h.807v-3.11a3.574,3.574,0,0,0-3.006,1.7v-1.6H48.277v9.586h2.938ZM62.5-1.458H65.44v-9.586H62.5ZM63.98-12.041a1.617,1.617,0,0,0,1.735-1.581,1.62,1.62,0,0,0-1.735-1.6,1.625,1.625,0,0,0-1.752,1.6A1.623,1.623,0,0,0,63.98-12.041ZM80.112-1.458h3.3l-3.3-4.759,3.213-4.828H80.146L78.6-8.4l-1.838-2.646h-3.3l3.247,4.69-3.161,4.9h3.178l1.546-2.663Z" transform="translate(1101.312 747.206)" fill="#f19100"/>
    <g id="Groupe_4099" data-name="Groupe 4099" transform="translate(1027.349 514.785)">
      <path id="Tracé_11379" data-name="Tracé 11379" d="M79,45.56l-9.5,9.474L79,47.088c-1.852,7.424-9.837,13.264-16,16.262l6.223-12.007A14.7,14.7,0,0,1,79,45.56" transform="translate(-61.226 -25.988)" fill="#b4771a"/>
      <path id="Tracé_11380" data-name="Tracé 11380" d="M89.759,145.563l1.126,2.211,6.968,6.14-6.085-6.971.28-.549c7.908.909,10.574,6.7,14.631,12.5-8.287-2.414-15.661-3.555-18.671-12.9Z" transform="translate(-63.984 -37.019)" fill="#b4771a"/>
      <path id="Tracé_11381" data-name="Tracé 11381" d="M200.33,112.566c-2.538,6.669-5.571,14.262-13.34,16-.479-2.311,1.32-1.444,1.818-2.32.062-.106,7.15-8.2,7.131-8.507-.007-.131-7.1,7.556-7.183,7.265l-1.781.446a10.148,10.148,0,0,1,5.053-8.293Z" transform="translate(-74.893 -33.379)" fill="#b4771a"/>
      <path id="Tracé_11382" data-name="Tracé 11382" d="M180.222,36.9c-.476-.546-6.226-6.528-6.679-6.328-.217.1,4.878,6.342,4.533,6.328-.917-.038-2.187-.96-3.16-1.276-5.048-1.637-7.991-7.083-8.916-12.065,6.145,2.946,14.153,5.151,14.222,13.341" transform="translate(-72.587 -23.561)" fill="#b4771a"/>
      <path id="Tracé_11383" data-name="Tracé 11383" d="M67.223,114.893c-5.972-1.246-5.525-8.481-6.218-13.337,1.793,1.27,5.276,4.162,5.868,6.2a8.688,8.688,0,0,1-.158,3.893c-.069.456-3.062-5.06-3.026-4.521s3.144,7.132,3.535,7.764" transform="translate(-61.005 -32.164)" fill="#b4771a"/>
      <path id="Tracé_11384" data-name="Tracé 11384" d="M203.313,80.232c-3.207-2.138-5.99-3.522-5.32-8l.731.536,3.23,4.182-2.7-5.733-.374-1.657c3.664,2.2,4.886,6.712,4.431,10.675" transform="translate(-76.105 -28.635)" fill="#b4771a"/>
      <path id="Tracé_11385" data-name="Tracé 11385" d="M5.386,0C3.322.43,2.166,2.584,1.436,4.251.388,6.648.361,9.024,0,11.552c1.553-1.1,7.123-4.1,7.738-7.4.218-2.025.348-1.783.174-2.871C7.861.965,2.9,7.809,2.43,7.592,2.27,7.519,7.292.9,7.1.575,6.573.409,5.386,0,5.386,0" transform="matrix(0.656, 0.755, -0.755, 0.656, 49.892, 6.928)" fill="#b4771a"/>
    </g>
  </g>
</svg>
