<svg width="525" height="490" viewBox="0 0 525 490" fill="none" xmlns="http://www.w3.org/2000/svg">
<g opacity="0.41" clip-path="url(#clip0_1149_46032)">
<g opacity="0.3">
<path opacity="0.87" d="M-115.611 407.533L-116.077 408.418L2.04264 470.564L2.50826 469.679L-115.611 407.533Z" fill="#EA5455"/>
<path opacity="0.84" d="M4.77893 320.197L-116.108 407.576L-115.522 408.387L5.36474 321.008L4.77893 320.197Z" fill="#EA5455"/>
<path opacity="0.78" d="M20.5396 341.461L-116.054 407.522L-115.619 408.423L20.975 342.361L20.5396 341.461Z" fill="#EA5455"/>
<path opacity="0.77" d="M287.678 4.71213L286.785 5.16113L341.079 113.207L341.972 112.758L287.678 4.71213Z" fill="#EA5455"/>
<path opacity="0.8" d="M475.638 218.376L475.026 219.167L589.226 307.621L589.838 306.831L475.638 218.376Z" fill="#EA5455"/>
<path opacity="0.89" d="M261.699 77.2411L261.296 78.1562L341.349 113.43L341.752 112.515L261.699 77.2411Z" fill="#EA5455"/>
<path opacity="0.85" d="M341.225 112.565L288.586 152.84L289.193 153.634L341.833 113.359L341.225 112.565Z" fill="#EA5455"/>
<path opacity="0.79" d="M341.701 112.474L341.294 113.388L438.146 156.489L438.553 155.575L341.701 112.474Z" fill="#EA5455"/>
<path opacity="0.76" d="M342.023 112.846L341.035 112.998L349.995 171.213L350.983 171.06L342.023 112.846Z" fill="#EA5455"/>
<path opacity="0.79" d="M449.702 261.514L402.419 322.957L403.211 323.567L450.494 262.124L449.702 261.514Z" fill="#EA5455"/>
<path opacity="0.8" d="M261.947 77.5045L261.007 77.8457L288.44 153.421L289.38 153.08L261.947 77.5045Z" fill="#EA5455"/>
<path opacity="0.78" d="M438.801 155.808L437.94 156.316L474.884 219.01L475.746 218.503L438.801 155.808Z" fill="#EA5455"/>
<path opacity="0.84" d="M474.883 218.486L449.677 261.587L450.54 262.092L475.747 218.991L474.883 218.486Z" fill="#EA5455"/>
<path opacity="0.87" d="M359.565 231.127L359.249 232.076L449.936 262.296L450.252 261.347L359.565 231.127Z" fill="#EA5455"/>
<path opacity="0.86" d="M475.263 218.18L359.397 231.156L359.508 232.15L475.374 219.174L475.263 218.18Z" fill="#EA5455"/>
<path opacity="0.78" d="M438.289 155.52L350.407 170.684L350.578 171.67L438.459 156.506L438.289 155.52Z" fill="#EA5455"/>
<path opacity="0.84" d="M438.021 155.662L359.068 231.216L359.76 231.939L438.713 156.384L438.021 155.662Z" fill="#EA5455"/>
<path opacity="0.78" d="M450.62 261.699L449.652 261.951L477.65 369.435L478.617 369.183L450.62 261.699Z" fill="#EA5455"/>
<path opacity="0.89" d="M450.282 261.386L449.972 262.337L589.362 307.682L589.672 306.731L450.282 261.386Z" fill="#EA5455"/>
<path opacity="0.76" d="M589.194 306.771L441.408 427.689L442.041 428.463L589.827 307.545L589.194 306.771Z" fill="#EA5455"/>
<path opacity="0.63" d="M589.296 306.76L477.859 368.836L478.346 369.71L589.783 307.634L589.296 306.76Z" fill="#EA5455"/>
<path opacity="0.77" d="M289.037 152.776L288.758 153.736L350.335 171.649L350.614 170.689L289.037 152.776Z" fill="#EA5455"/>
<path opacity="0.85" d="M289.406 153.131L288.422 153.309L305.785 249.037L306.769 248.859L289.406 153.131Z" fill="#EA5455"/>
<path opacity="0.83" d="M359.28 231.154L306.108 248.534L306.419 249.484L359.59 232.105L359.28 231.154Z" fill="#EA5455"/>
<path opacity="0.78" d="M350.979 171.068L349.99 171.214L358.95 231.674L359.939 231.527L350.979 171.068Z" fill="#EA5455"/>
<path opacity="0.87" d="M350.071 170.953L305.836 248.757L306.705 249.252L350.94 171.447L350.071 170.953Z" fill="#EA5455"/>
<path opacity="0.76" d="M306.71 248.738L305.813 249.181L355.083 348.826L355.979 348.383L306.71 248.738Z" fill="#EA5455"/>
<path opacity="0.82" d="M286.837 4.59688L170.369 155.725L171.161 156.336L287.629 5.2073L286.837 4.59688Z" fill="#EA5455"/>
<path opacity="0.82" d="M286.788 4.75492L261.018 77.5269L261.96 77.8607L287.73 5.08873L286.788 4.75492Z" fill="#EA5455"/>
<path opacity="0.9" d="M261.128 77.264L170.463 155.662L171.117 156.419L261.782 78.0204L261.128 77.264Z" fill="#EA5455"/>
<path opacity="0.77" d="M441.305 427.822L387.565 508.431L388.397 508.985L442.137 428.376L441.305 427.822Z" fill="#EA5455"/>
<path opacity="0.61" d="M170.536 155.629L85.4524 206.027L85.962 206.888L171.046 156.489L170.536 155.629Z" fill="#EA5455"/>
<path opacity="0.82" d="M85.8489 205.966L85.5527 206.921L180.387 236.331L180.683 235.376L85.8489 205.966Z" fill="#EA5455"/>
<path opacity="0.89" d="M180.173 235.538L136.269 279.442L136.976 280.149L180.88 236.245L180.173 235.538Z" fill="#EA5455"/>
<path opacity="0.78" d="M358.909 231.607L355.028 348.603L356.028 348.636L359.909 231.64L358.909 231.607Z" fill="#EA5455"/>
<path opacity="0.84" d="M359.896 231.424L358.992 231.852L402.35 323.492L403.254 323.065L359.896 231.424Z" fill="#EA5455"/>
<path opacity="0.86" d="M402.552 322.865L355.275 348.226L355.747 349.107L403.025 323.746L402.552 322.865Z" fill="#EA5455"/>
<path opacity="0.85" d="M477.664 369.04L441.307 427.838L442.158 428.364L478.514 369.566L477.664 369.04Z" fill="#EA5455"/>
<path opacity="0.79" d="M288.44 152.981L249.932 220.029L250.8 220.527L289.308 153.479L288.44 152.981Z" fill="#EA5455"/>
<path opacity="0.84" d="M199.704 197.494L199.302 198.409L250.159 220.755L250.561 219.84L199.704 197.494Z" fill="#EA5455"/>
<path opacity="0.86" d="M288.894 152.779L170.776 155.542L170.799 156.541L288.917 153.778L288.894 152.779Z" fill="#EA5455"/>
<path opacity="0.86" d="M288.674 152.765L199.28 197.472L199.727 198.367L289.121 153.66L288.674 152.765Z" fill="#EA5455"/>
<path opacity="0.6" d="M403.033 322.793L402.511 323.646L477.831 369.712L478.353 368.859L403.033 322.793Z" fill="#EA5455"/>
<path opacity="0.85" d="M402.295 323.185L394.707 396.121L395.701 396.225L403.29 323.288L402.295 323.185Z" fill="#EA5455"/>
<path opacity="0.79" d="M477.97 368.815L395.124 395.701L395.432 396.652L478.279 369.766L477.97 368.815Z" fill="#EA5455"/>
<path opacity="0.8" d="M171.29 155.996L170.297 156.117L180.037 235.904L181.03 235.783L171.29 155.996Z" fill="#EA5455"/>
<path opacity="0.84" d="M199.057 197.723L180.096 235.636L180.991 236.084L199.951 198.17L199.057 197.723Z" fill="#EA5455"/>
<path opacity="0.9" d="M171.203 155.807L170.378 156.373L199.095 198.265L199.919 197.7L171.203 155.807Z" fill="#EA5455"/>
<path opacity="0.78" d="M355.905 348.332L355.138 348.973L394.883 396.558L395.65 395.917L355.905 348.332Z" fill="#EA5455"/>
<path opacity="0.75" d="M355.043 348.589L349.39 444.873L350.388 444.932L356.041 348.647L355.043 348.589Z" fill="#EA5455"/>
<path opacity="0.85" d="M250.569 219.813L250.112 220.703L306.009 249.393L306.466 248.503L250.569 219.813Z" fill="#EA5455"/>
<path opacity="0.78" d="M305.704 248.948L304.069 329.001L305.068 329.021L306.703 248.968L305.704 248.948Z" fill="#EA5455"/>
<path opacity="0.87" d="M305.838 248.682L252.126 321.482L252.931 322.076L306.643 249.276L305.838 248.682Z" fill="#EA5455"/>
<path opacity="0.71" d="M441.67 427.597L349.858 444.365L350.038 445.349L441.849 428.581L441.67 427.597Z" fill="#EA5455"/>
<path opacity="0.9" d="M395.556 395.802L394.99 396.626L441.448 428.532L442.014 427.708L395.556 395.802Z" fill="#EA5455"/>
<path opacity="0.9" d="M394.884 395.835L349.555 444.547L350.287 445.228L395.616 396.516L394.884 395.835Z" fill="#EA5455"/>
<path opacity="0.81" d="M250.866 220.272L249.866 220.293L252.027 321.76L253.027 321.739L250.866 220.272Z" fill="#EA5455"/>
<path opacity="0.79" d="M181.009 235.67L180.054 235.968L200.549 301.728L201.503 301.431L181.009 235.67Z" fill="#EA5455"/>
<path opacity="0.78" d="M250.248 219.784L180.425 235.365L180.643 236.341L250.466 220.76L250.248 219.784Z" fill="#EA5455"/>
<path opacity="0.77" d="M249.956 220.05L200.596 301.36L201.451 301.879L250.81 220.569L249.956 220.05Z" fill="#EA5455"/>
<path opacity="0.81" d="M252.601 321.276L252.462 322.267L304.526 329.547L304.664 328.556L252.601 321.276Z" fill="#EA5455"/>
<path opacity="0.86" d="M304.767 328.59L304.408 329.523L355.349 349.119L355.708 348.185L304.767 328.59Z" fill="#EA5455"/>
<path opacity="0.85" d="M355.199 348.291L287.462 403.712L288.096 404.486L355.832 349.065L355.199 348.291Z" fill="#EA5455"/>
<path opacity="0.77" d="M304.065 328.893L287.271 403.906L288.246 404.124L305.041 329.111L304.065 328.893Z" fill="#EA5455"/>
<path opacity="0.73" d="M201.199 301.135L200.835 302.066L252.333 322.217L252.697 321.285L201.199 301.135Z" fill="#EA5455"/>
<path opacity="0.82" d="M252.98 321.544L252.061 321.938L287.33 404.228L288.25 403.834L252.98 321.544Z" fill="#EA5455"/>
<path opacity="0.89" d="M209.496 393.504L209.368 394.496L287.742 404.578L287.87 403.586L209.496 393.504Z" fill="#EA5455"/>
<path opacity="0.88" d="M252.06 321.525L209.023 393.779L209.882 394.291L252.919 322.037L252.06 321.525Z" fill="#EA5455"/>
<path opacity="0.88" d="M288.054 403.62L287.505 404.456L349.642 445.319L350.192 444.483L288.054 403.62Z" fill="#EA5455"/>
<path opacity="0.84" d="M349.869 444.439L229.51 451.737L229.57 452.735L349.929 445.437L349.869 444.439Z" fill="#EA5455"/>
<path opacity="0.82" d="M287.497 403.65L229.234 451.746L229.871 452.517L288.134 404.421L287.497 403.65Z" fill="#EA5455"/>
<path opacity="0.76" d="M350.362 444.611L349.503 445.124L387.575 508.94L388.434 508.427L350.362 444.611Z" fill="#EA5455"/>
<path opacity="0.79" d="M349.73 444.424L226.988 489.682L227.334 490.62L350.076 445.362L349.73 444.424Z" fill="#EA5455"/>
<path opacity="0.81" d="M227.239 489.638L227.124 490.631L387.957 509.269L388.072 508.276L227.239 489.638Z" fill="#EA5455"/>
<path opacity="0.82" d="M136.791 279.278L136.47 280.225L200.85 302.054L201.171 301.107L136.791 279.278Z" fill="#EA5455"/>
<path opacity="0.82" d="M201.494 301.581L200.498 301.672L208.888 394.042L209.884 393.951L201.494 301.581Z" fill="#EA5455"/>
<path opacity="0.76" d="M200.758 301.232L86.1948 372.458L86.7228 373.308L201.286 302.081L200.758 301.232Z" fill="#EA5455"/>
<path opacity="0.89" d="M86.5671 372.381L86.3979 373.367L209.33 394.468L209.499 393.483L86.5671 372.381Z" fill="#EA5455"/>
<path opacity="0.81" d="M85.9893 372.884L85.6702 399.772L86.6701 399.784L86.9892 372.896L85.9893 372.884Z" fill="#EA5455"/>
<path opacity="0.72" d="M85.2993 206.177L4.66577 320.355L5.48261 320.932L86.1161 206.754L85.2993 206.177Z" fill="#EA5455"/>
<path opacity="0.84" d="M86.113 206.132L85.2917 206.702L136.238 280.031L137.059 279.461L86.113 206.132Z" fill="#EA5455"/>
<path opacity="0.77" d="M226.787 489.765L167.086 544.242L167.76 544.98L227.461 490.504L226.787 489.765Z" fill="#EA5455"/>
<path opacity="0.72" d="M2.76614 469.918L1.82861 470.266L34.8599 559.275L35.7974 558.927L2.76614 469.918Z" fill="#EA5455"/>
<path opacity="0.72" d="M136.214 279.538L86.0144 372.613L86.8946 373.088L137.094 280.013L136.214 279.538Z" fill="#EA5455"/>
<path opacity="0.65" d="M20.9708 341.428L20.5447 342.333L86.2696 373.289L86.6956 372.384L20.9708 341.428Z" fill="#EA5455"/>
<path opacity="0.63" d="M5.47502 320.357L4.66992 320.95L20.3406 342.221L21.1457 341.628L5.47502 320.357Z" fill="#EA5455"/>
<path opacity="0.7" d="M136.479 279.268L4.93921 320.162L5.23608 321.117L136.776 280.223L136.479 279.268Z" fill="#EA5455"/>
<path opacity="0.85" d="M136.394 279.302L20.5332 341.479L21.0061 342.36L136.867 280.184L136.394 279.302Z" fill="#EA5455"/>
<path opacity="0.69" d="M124.385 476.324L124.257 477.316L227.093 490.599L227.221 489.607L124.385 476.324Z" fill="#EA5455"/>
<path opacity="0.65" d="M229.027 452.133L226.655 490.049L227.653 490.111L230.025 452.195L229.027 452.133Z" fill="#EA5455"/>
<path opacity="0.61" d="M209.38 393.467L86.136 399.257L86.1829 400.256L209.427 394.466L209.38 393.467Z" fill="#EA5455"/>
<path opacity="0.62" d="M209.864 393.839L208.919 394.166L229.069 452.388L230.014 452.061L209.864 393.839Z" fill="#EA5455"/>
<path opacity="0.66" d="M229.47 451.727L124.21 476.299L124.438 477.273L229.698 452.701L229.47 451.727Z" fill="#EA5455"/>
<path opacity="0.74" d="M209.083 393.632L123.957 476.442L124.654 477.159L209.78 394.348L209.083 393.632Z" fill="#EA5455"/>
<path opacity="0.61" d="M20.2532 341.799L1.80225 469.998L2.79205 470.141L21.243 341.941L20.2532 341.799Z" fill="#EA5455"/>
<path opacity="0.72" d="M21.0878 341.537L20.4253 342.286L85.8342 400.135L86.4967 399.386L21.0878 341.537Z" fill="#EA5455"/>
<path opacity="0.66" d="M2.6591 469.746L1.93457 470.436L45.5979 516.335L46.3225 515.645L2.6591 469.746Z" fill="#EA5455"/>
<path opacity="0.71" d="M85.8445 399.336L1.99023 469.723L2.63316 470.489L86.4874 400.102L85.8445 399.336Z" fill="#EA5455"/>
<path opacity="0.73" d="M86.6059 399.533L85.7097 399.977L123.868 477.048L124.764 476.605L86.6059 399.533Z" fill="#EA5455"/>
<path opacity="0.74" d="M85.652 399.599L45.5227 515.879L46.468 516.206L86.5973 399.925L85.652 399.599Z" fill="#EA5455"/>
<path opacity="0.63" d="M124.734 476.574L123.89 477.111L166.995 544.849L167.838 544.312L124.734 476.574Z" fill="#EA5455"/>
<path opacity="0.6" d="M124.11 476.35L45.7434 515.542L46.1907 516.436L124.557 477.245L124.11 476.35Z" fill="#EA5455"/>
<path d="M433.86 160.57C431.37 158.08 431.37 154.04 433.86 151.54C436.35 149.04 440.39 149.05 442.89 151.54C445.38 154.03 445.38 158.07 442.89 160.57C440.4 163.06 436.36 163.06 433.86 160.57Z" fill="#378052"/>
<path d="M435.61 158.82C434.08 157.29 434.08 154.82 435.61 153.29C437.14 151.76 439.61 151.76 441.14 153.29C442.67 154.82 442.67 157.29 441.14 158.82C439.61 160.35 437.14 160.35 435.61 158.82Z" fill="#256B3F"/>
<path d="M283.75 8.38C281.83 6.46 281.83 3.35 283.75 1.44C285.67 -0.48 288.78 -0.48 290.69 1.44C292.61 3.36 292.61 6.47 290.69 8.38C288.77 10.3 285.66 10.3 283.75 8.38Z" fill="#378052"/>
<path d="M285.1 7.0401C283.93 5.8601 283.92 3.9601 285.1 2.7901C286.27 1.6201 288.18 1.6201 289.35 2.7901C290.52 3.9601 290.53 5.8701 289.35 7.0401C288.18 8.2101 286.27 8.2101 285.1 7.0401Z" fill="#256B3F"/>
<path d="M471.66 222.41C469.64 220.39 469.64 217.11 471.66 215.09C473.68 213.07 476.96 213.07 478.98 215.09C481 217.11 481 220.39 478.98 222.41C476.96 224.43 473.68 224.43 471.66 222.41Z" fill="#378052"/>
<path d="M473.07 221C471.83 219.76 471.83 217.75 473.07 216.51C474.31 215.27 476.32 215.27 477.56 216.51C478.8 217.75 478.8 219.76 477.56 221C476.32 222.24 474.31 222.24 473.07 221Z" fill="#256B3F"/>
<path d="M339.25 115.22C337.99 113.96 337.99 111.93 339.25 110.67C340.51 109.41 342.54 109.42 343.8 110.67C345.06 111.93 345.06 113.96 343.8 115.22C342.54 116.48 340.51 116.47 339.25 115.22Z" fill="#378052"/>
<path d="M340.13 114.34C339.36 113.57 339.36 112.32 340.13 111.55C340.9 110.78 342.15 110.78 342.92 111.55C343.69 112.32 343.69 113.57 342.92 114.34C342.15 115.11 340.9 115.11 340.13 114.34Z" fill="#256B3F"/>
<path d="M447.03 264.96C445.32 263.25 445.32 260.47 447.03 258.76C448.74 257.05 451.52 257.05 453.23 258.76C454.94 260.47 454.94 263.25 453.23 264.96C451.52 266.67 448.74 266.67 447.03 264.96Z" fill="#378052"/>
<path d="M448.23 263.76C447.18 262.71 447.18 261.01 448.23 259.96C449.28 258.91 450.98 258.91 452.03 259.96C453.08 261.01 453.08 262.71 452.03 263.76C450.98 264.81 449.28 264.81 448.23 263.76Z" fill="#256B3F"/>
<path d="M257.68 81.4799C255.58 79.3799 255.58 75.9799 257.68 73.8899C259.78 71.7899 263.18 71.7899 265.27 73.8899C267.37 75.9899 267.37 79.3899 265.27 81.4799C263.17 83.5799 259.77 83.5799 257.68 81.4799Z" fill="#378052"/>
<path d="M259.15 80.0099C257.87 78.7299 257.86 76.6399 259.15 75.3599C260.43 74.0799 262.52 74.0799 263.8 75.3599C265.08 76.6399 265.09 78.7299 263.8 80.0099C262.52 81.2899 260.43 81.2899 259.15 80.0099Z" fill="#256B3F"/>
<path d="M346.54 175.11C344.36 172.93 344.36 169.4 346.54 167.23C348.72 165.05 352.25 165.05 354.42 167.23C356.6 169.41 356.6 172.94 354.42 175.11C352.24 177.29 348.71 177.29 346.54 175.11Z" fill="#378052"/>
<path d="M348.07 173.59C346.74 172.26 346.74 170.09 348.07 168.76C349.4 167.43 351.57 167.43 352.9 168.76C354.23 170.09 354.23 172.26 352.9 173.59C351.57 174.92 349.4 174.92 348.07 173.59Z" fill="#256B3F"/>
<path d="M286.28 155.88C284.83 154.43 284.83 152.09 286.28 150.64C287.73 149.19 290.07 149.19 291.52 150.64C292.97 152.09 292.97 154.43 291.52 155.88C290.07 157.33 287.73 157.33 286.28 155.88Z" fill="#378052"/>
<path d="M287.3 154.86C286.41 153.97 286.41 152.54 287.3 151.65C288.19 150.76 289.62 150.76 290.51 151.65C291.4 152.54 291.4 153.97 290.51 154.86C289.62 155.75 288.19 155.75 287.3 154.86Z" fill="#256B3F"/>
<path d="M355.55 235.51C353.4 233.36 353.4 229.88 355.55 227.74C357.7 225.59 361.18 225.6 363.32 227.74C365.46 229.88 365.47 233.37 363.32 235.51C361.17 237.65 357.69 237.65 355.55 235.51Z" fill="#378052"/>
<path d="M357.06 234.01C355.74 232.69 355.74 230.56 357.06 229.25C358.37 227.94 360.51 227.94 361.82 229.25C363.14 230.57 363.14 232.7 361.82 234.01C360.51 235.32 358.37 235.32 357.06 234.01Z" fill="#256B3F"/>
<path d="M475.28 372.17C473.71 370.6 473.71 368.07 475.28 366.5C476.84 364.94 479.38 364.94 480.95 366.5C482.52 368.07 482.52 370.6 480.95 372.17C479.38 373.74 476.85 373.73 475.28 372.17Z" fill="#378052"/>
<path d="M476.38 371.08C475.42 370.12 475.42 368.57 476.38 367.61C477.34 366.65 478.89 366.65 479.85 367.61C480.81 368.57 480.81 370.12 479.85 371.08C478.89 372.04 477.34 372.04 476.38 371.08Z" fill="#256B3F"/>
<path d="M398.12 327.95C395.53 325.36 395.53 321.17 398.12 318.59C400.71 316.01 404.9 316.01 407.48 318.59C410.07 321.18 410.07 325.37 407.48 327.95C404.9 330.53 400.7 330.53 398.12 327.95Z" fill="#378052"/>
<path d="M399.93 326.13C398.35 324.55 398.35 321.98 399.93 320.39C401.51 318.81 404.08 318.81 405.67 320.39C407.25 321.97 407.25 324.54 405.67 326.13C404.09 327.71 401.52 327.71 399.93 326.13Z" fill="#256B3F"/>
<path d="M302.79 252.45C300.87 250.53 300.87 247.42 302.79 245.51C304.71 243.59 307.82 243.59 309.73 245.51C311.64 247.43 311.65 250.54 309.73 252.45C307.81 254.37 304.7 254.37 302.79 252.45Z" fill="#378052"/>
<path d="M304.13 251.11C302.96 249.93 302.95 248.03 304.13 246.86C305.3 245.69 307.21 245.69 308.38 246.86C309.55 248.03 309.56 249.94 308.38 251.11C307.21 252.28 305.3 252.28 304.13 251.11Z" fill="#256B3F"/>
<path d="M247.23 223.41C245.51 221.69 245.51 218.89 247.23 217.16C248.96 215.43 251.75 215.43 253.48 217.16C255.21 218.89 255.2 221.68 253.48 223.41C251.75 225.14 248.96 225.14 247.23 223.41Z" fill="#378052"/>
<path d="M248.44 222.2C247.38 221.14 247.38 219.43 248.44 218.37C249.5 217.31 251.21 217.31 252.27 218.37C253.33 219.43 253.33 221.14 252.27 222.2C251.21 223.26 249.5 223.26 248.44 222.2Z" fill="#256B3F"/>
<path d="M167.47 159.37C165.64 157.54 165.64 154.57 167.47 152.74C169.3 150.91 172.27 150.91 174.1 152.74C175.93 154.57 175.93 157.54 174.1 159.37C172.27 161.2 169.3 161.2 167.47 159.37Z" fill="#378052"/>
<path d="M168.76 158.09C167.64 156.97 167.64 155.15 168.76 154.03C169.88 152.91 171.7 152.91 172.82 154.03C173.94 155.15 173.94 156.97 172.82 158.09C171.7 159.21 169.88 159.21 168.76 158.09Z" fill="#256B3F"/>
<path d="M439.41 430.44C438.13 429.16 438.13 427.08 439.41 425.8C440.69 424.52 442.77 424.52 444.05 425.8C445.33 427.08 445.33 429.16 444.05 430.44C442.77 431.72 440.69 431.72 439.41 430.44Z" fill="#378052"/>
<path d="M440.31 429.54C439.53 428.76 439.53 427.48 440.31 426.7C441.09 425.92 442.37 425.92 443.15 426.7C443.93 427.48 443.93 428.76 443.15 429.54C442.37 430.32 441.09 430.32 440.31 429.54Z" fill="#256B3F"/>
<path d="M351.87 352.28C349.85 350.26 349.85 346.99 351.87 344.98C353.89 342.96 357.15 342.97 359.17 344.98C361.19 346.99 361.19 350.27 359.17 352.28C357.15 354.3 353.89 354.29 351.87 352.28Z" fill="#378052"/>
<path d="M353.28 350.86C352.04 349.62 352.04 347.62 353.28 346.39C354.51 345.16 356.52 345.16 357.75 346.39C358.98 347.62 358.99 349.63 357.75 350.86C356.52 352.1 354.51 352.09 353.28 350.86Z" fill="#256B3F"/>
<path d="M197.03 200.42C195.66 199.05 195.66 196.84 197.03 195.47C198.4 194.1 200.61 194.1 201.98 195.47C203.35 196.84 203.35 199.05 201.98 200.42C200.61 201.79 198.4 201.79 197.03 200.42Z" fill="#378052"/>
<path d="M197.99 199.46C197.15 198.62 197.15 197.27 197.99 196.43C198.83 195.59 200.18 195.59 201.02 196.43C201.86 197.27 201.86 198.62 201.02 199.46C200.18 200.3 198.83 200.3 197.99 199.46Z" fill="#256B3F"/>
<path d="M390.74 400.73C388.24 398.23 388.24 394.18 390.74 391.68C393.24 389.18 397.29 389.18 399.79 391.68C402.29 394.18 402.29 398.23 399.79 400.73C397.29 403.23 393.24 403.23 390.74 400.73Z" fill="#378052"/>
<path d="M392.49 398.98C390.96 397.45 390.96 394.97 392.49 393.44C394.02 391.91 396.5 391.91 398.03 393.44C399.56 394.97 399.56 397.45 398.03 398.98C396.5 400.51 394.02 400.51 392.49 398.98Z" fill="#256B3F"/>
<path d="M301.01 332.61C299.04 330.64 299.04 327.44 301.01 325.47C302.98 323.5 306.18 323.5 308.15 325.47C310.12 327.44 310.12 330.64 308.15 332.61C306.18 334.58 302.98 334.58 301.01 332.61Z" fill="#378052"/>
<path d="M302.39 331.22C301.18 330.01 301.18 328.05 302.39 326.84C303.6 325.63 305.56 325.63 306.77 326.84C307.98 328.05 307.98 330.01 306.77 331.22C305.56 332.43 303.6 332.43 302.39 331.22Z" fill="#256B3F"/>
<path d="M176.81 239.56C174.76 237.51 174.76 234.18 176.81 232.13C178.86 230.08 182.19 230.08 184.24 232.13C186.29 234.18 186.29 237.51 184.24 239.56C182.19 241.61 178.86 241.61 176.81 239.56Z" fill="#378052"/>
<path d="M178.25 238.12C176.99 236.86 176.99 234.82 178.25 233.57C179.51 232.32 181.55 232.31 182.8 233.57C184.05 234.83 184.06 236.87 182.8 238.12C181.54 239.38 179.5 239.38 178.25 238.12Z" fill="#256B3F"/>
<path d="M248.79 325.49C246.73 323.43 246.73 320.09 248.79 318.03C250.85 315.97 254.19 315.97 256.25 318.03C258.31 320.09 258.31 323.43 256.25 325.49C254.19 327.55 250.85 327.55 248.79 325.49Z" fill="#378052"/>
<path d="M250.23 324.04C248.97 322.78 248.97 320.73 250.23 319.47C251.49 318.21 253.54 318.21 254.8 319.47C256.06 320.73 256.06 322.78 254.8 324.04C253.54 325.3 251.49 325.3 250.23 324.04Z" fill="#256B3F"/>
<path d="M345.38 449.46C342.87 446.95 342.87 442.88 345.38 440.37C347.89 437.86 351.96 437.86 354.47 440.37C356.98 442.88 356.98 446.95 354.47 449.46C351.96 451.97 347.89 451.97 345.38 449.46Z" fill="#378052"/>
<path d="M347.14 447.7C345.6 446.16 345.6 443.67 347.14 442.13C348.68 440.59 351.17 440.59 352.71 442.13C354.25 443.67 354.25 446.16 352.71 447.7C351.17 449.24 348.68 449.24 347.14 447.7Z" fill="#256B3F"/>
<path d="M198.66 303.96C197.36 302.66 197.36 300.56 198.66 299.26C199.96 297.96 202.06 297.96 203.36 299.26C204.66 300.56 204.66 302.66 203.36 303.96C202.06 305.26 199.96 305.26 198.66 303.96Z" fill="#378052"/>
<path d="M199.57 303.04C198.77 302.24 198.77 300.95 199.57 300.16C200.37 299.36 201.66 299.36 202.45 300.16C203.24 300.96 203.25 302.25 202.45 303.04C201.65 303.84 200.36 303.84 199.57 303.04Z" fill="#256B3F"/>
<path d="M285.31 406.52C283.94 405.15 283.94 402.94 285.31 401.57C286.68 400.2 288.89 400.2 290.26 401.57C291.63 402.94 291.63 405.15 290.26 406.52C288.89 407.89 286.68 407.89 285.31 406.52Z" fill="#378052"/>
<path d="M286.27 405.56C285.43 404.72 285.43 403.36 286.27 402.53C287.11 401.7 288.46 401.69 289.3 402.53C290.14 403.37 290.14 404.73 289.3 405.56C288.46 406.39 287.11 406.4 286.27 405.56Z" fill="#256B3F"/>
<path d="M83.4101 208.72C82.1501 207.46 82.1501 205.41 83.4101 204.15C84.6701 202.89 86.7201 202.89 87.9801 204.15C89.2401 205.41 89.2401 207.46 87.9801 208.72C86.7201 209.98 84.6701 209.98 83.4101 208.72Z" fill="#378052"/>
<path d="M84.3002 207.84C83.5302 207.07 83.5302 205.81 84.3002 205.04C85.0702 204.27 86.3302 204.27 87.1002 205.04C87.8702 205.81 87.8702 207.07 87.1002 207.84C86.3302 208.61 85.0702 208.61 84.3002 207.84Z" fill="#256B3F"/>
<path d="M133.06 283.35C131.08 281.37 131.08 278.16 133.06 276.18C135.04 274.2 138.25 274.2 140.23 276.18C142.21 278.16 142.21 281.37 140.23 283.35C138.25 285.33 135.04 285.33 133.06 283.35Z" fill="#378052"/>
<path d="M134.44 281.97C133.23 280.76 133.23 278.79 134.44 277.58C135.65 276.37 137.62 276.37 138.83 277.58C140.04 278.79 140.04 280.76 138.83 281.97C137.62 283.18 135.65 283.18 134.44 281.97Z" fill="#256B3F"/>
<path d="M206.41 396.97C204.75 395.31 204.75 392.62 206.41 390.97C208.07 389.31 210.75 389.31 212.41 390.97C214.07 392.63 214.07 395.32 212.41 396.97C210.75 398.63 208.07 398.63 206.41 396.97Z" fill="#378052"/>
<path d="M207.57 395.81C206.55 394.79 206.55 393.15 207.57 392.13C208.59 391.11 210.23 391.12 211.25 392.13C212.27 393.15 212.27 394.79 211.25 395.81C210.23 396.83 208.59 396.82 207.57 395.81Z" fill="#256B3F"/>
<path d="M225.44 456.31C223.16 454.03 223.16 450.34 225.44 448.07C227.72 445.8 231.41 445.8 233.68 448.07C235.96 450.35 235.96 454.04 233.68 456.31C231.4 458.58 227.71 458.58 225.44 456.31Z" fill="#378052"/>
<path d="M227.04 454.71C225.65 453.32 225.64 451.05 227.04 449.66C228.44 448.27 230.69 448.27 232.09 449.66C233.48 451.05 233.49 453.32 232.09 454.71C230.7 456.1 228.44 456.1 227.04 454.71Z" fill="#256B3F"/>
<path d="M223.3 493.96C221.17 491.83 221.17 488.39 223.3 486.26C225.43 484.13 228.88 484.13 231 486.26C233.13 488.39 233.13 491.83 231 493.96C228.87 496.09 225.42 496.09 223.3 493.96Z" fill="#378052"/>
<path d="M224.8 492.46C223.5 491.16 223.5 489.04 224.8 487.74C226.1 486.44 228.22 486.44 229.52 487.74C230.82 489.04 230.82 491.16 229.52 492.46C228.22 493.76 226.1 493.76 224.8 492.46Z" fill="#256B3F"/>
<path d="M84.12 375.23C82.82 373.93 82.82 371.81 84.12 370.51C85.42 369.21 87.54 369.2 88.84 370.51C90.14 371.81 90.14 373.93 88.84 375.23C87.54 376.53 85.42 376.54 84.12 375.23Z" fill="#378052"/>
<path d="M85.0299 374.32C84.2299 373.52 84.2299 372.23 85.0299 371.43C85.8299 370.63 87.1299 370.63 87.9199 371.43C88.7199 372.23 88.7199 373.52 87.9199 374.32C87.1199 375.12 85.8199 375.12 85.0299 374.32Z" fill="#256B3F"/>
<path d="M82.2901 403.63C80.1501 401.49 80.1501 398.02 82.2901 395.88C84.4301 393.74 87.9001 393.74 90.0401 395.88C92.1801 398.02 92.1801 401.49 90.0401 403.63C87.9001 405.77 84.4301 405.77 82.2901 403.63Z" fill="#378052"/>
<path d="M83.7901 402.13C82.4801 400.82 82.4801 398.69 83.7901 397.38C85.1001 396.07 87.2301 396.07 88.5401 397.38C89.8501 398.69 89.8501 400.82 88.5401 402.13C87.2301 403.44 85.1001 403.44 83.7901 402.13Z" fill="#256B3F"/>
<path d="M1.09995 324.62C-1.10005 322.42 -1.10005 318.85 1.09995 316.65C3.29995 314.45 6.86996 314.45 9.06996 316.65C11.27 318.85 11.27 322.42 9.06996 324.62C6.86996 326.82 3.29995 326.82 1.09995 324.62Z" fill="#378052"/>
<path d="M2.63994 323.08C1.28994 321.73 1.28994 319.54 2.63994 318.2C3.98994 316.85 6.17994 316.85 7.52994 318.2C8.87994 319.55 8.87994 321.74 7.52994 323.09C6.17994 324.44 3.98994 324.44 2.63994 323.09V323.08Z" fill="#256B3F"/>
<path d="M17.02 345.65C14.95 343.58 14.95 340.23 17.02 338.17C19.09 336.1 22.43 336.11 24.5 338.17C26.57 340.24 26.57 343.59 24.5 345.65C22.43 347.71 19.09 347.71 17.02 345.65Z" fill="#378052"/>
<path d="M18.4701 344.2C17.2001 342.93 17.2001 340.88 18.4701 339.62C19.7401 338.35 21.7901 338.36 23.0501 339.62C24.3101 340.88 24.3201 342.94 23.0501 344.2C21.7801 345.47 19.7301 345.46 18.4701 344.2Z" fill="#256B3F"/>
<path d="M121.32 479.82C119.66 478.16 119.66 475.47 121.32 473.82C122.98 472.16 125.66 472.16 127.32 473.82C128.98 475.48 128.98 478.17 127.32 479.82C125.66 481.48 122.98 481.48 121.32 479.82Z" fill="#378052"/>
<path d="M122.48 478.66C121.46 477.64 121.46 476 122.48 474.98C123.5 473.96 125.14 473.97 126.16 474.98C127.18 476 127.18 477.64 126.16 478.66C125.14 479.68 123.5 479.67 122.48 478.66Z" fill="#256B3F"/>
<path d="M-0.300059 472.69C-1.73006 471.26 -1.73006 468.94 -0.300059 467.52C1.12994 466.09 3.43995 466.09 4.86995 467.52C6.29995 468.95 6.29995 471.27 4.86995 472.69C3.43995 474.11 1.12994 474.12 -0.300059 472.69Z" fill="#378052"/>
<path d="M0.700039 471.69C-0.179961 470.81 -0.179961 469.4 0.700039 468.52C1.58004 467.64 2.99005 467.65 3.87004 468.52C4.75004 469.4 4.75004 470.81 3.87004 471.69C2.99005 472.57 1.58004 472.56 0.700039 471.69Z" fill="#256B3F"/>
</g>
<path opacity="0.87" d="M484.157 442.047L483.202 442.343L522.782 569.81L523.737 569.513L484.157 442.047Z" fill="#378052"/>
<path opacity="0.89" d="M-8.29339 454.66L-9.22559 455.021L22.4378 536.57L23.37 536.208L-8.29339 454.66Z" fill="#378052"/>
<path opacity="0.85" d="M-8.6733 454.333L-8.80469 455.324L56.9007 464.033L57.0321 463.042L-8.6733 454.333Z" fill="#378052"/>
<path opacity="0.76" d="M25.6965 407.063L-9.14819 454.55L-8.34196 455.142L26.5028 407.654L25.6965 407.063Z" fill="#378052"/>
<path opacity="0.79" d="M96.5858 262.305L19.6929 272.223L19.8208 273.215L96.7138 263.297L96.5858 262.305Z" fill="#378052"/>
<path opacity="0.8" d="M56.5272 463.288L22.4724 536.119L23.3783 536.543L57.4331 463.711L56.5272 463.288Z" fill="#378052"/>
<path opacity="0.84" d="M19.6533 272.253L-28.6401 284.932L-28.3862 285.899L19.9073 273.22L19.6533 272.253Z" fill="#378052"/>
<path opacity="0.87" d="M20.1948 272.541L19.3003 272.988L62.0419 358.49L62.9364 358.043L20.1948 272.541Z" fill="#378052"/>
<path opacity="0.86" d="M-28.2134 285.026L-28.8381 285.807L62.2031 358.64L62.8278 357.859L-28.2134 285.026Z" fill="#378052"/>
<path opacity="0.78" d="M-46.4428 355.454L-47.0198 356.271L25.8173 407.728L26.3943 406.911L-46.4428 355.454Z" fill="#378052"/>
<path opacity="0.84" d="M-46.7133 355.397L-46.7351 356.397L62.5189 358.781L62.5407 357.781L-46.7133 355.397Z" fill="#378052"/>
<path opacity="0.78" d="M75.5381 176.663L19.3496 272.473L20.2122 272.979L76.4007 177.169L75.5381 176.663Z" fill="#378052"/>
<path opacity="0.89" d="M-46.2912 141.896L-47.1824 142.35L19.318 272.977L20.2091 272.523L-46.2912 141.896Z" fill="#378052"/>
<path opacity="0.76" d="M-46.6866 141.618L-46.7861 142.613L143.216 161.611L143.316 160.616L-46.6866 141.618Z" fill="#378052"/>
<path opacity="0.63" d="M-46.5999 141.641L-46.873 142.603L75.8371 177.442L76.1102 176.48L-46.5999 141.641Z" fill="#378052"/>
<path opacity="0.77" d="M56.5397 463.78L25.6597 407.57L26.5397 407.09L57.4097 463.3L56.5397 463.78Z" fill="#378052"/>
<path opacity="0.85" d="M111.999 383.271L56.5579 463.218L57.3796 463.788L112.821 383.84L111.999 383.271Z" fill="#378052"/>
<path opacity="0.83" d="M62.7395 357.819L62.2866 358.711L112.161 384.046L112.613 383.155L62.7395 357.819Z" fill="#378052"/>
<path opacity="0.78" d="M62.1241 357.951L25.7 407.032L26.503 407.628L62.9271 358.547L62.1241 357.951Z" fill="#378052"/>
<path opacity="0.87" d="M112.25 383.095L25.9595 406.847L26.2249 407.811L112.516 384.059L112.25 383.095Z" fill="#378052"/>
<path opacity="0.76" d="M147.532 278.106L111.93 383.411L112.877 383.731L148.48 278.427L147.532 278.106Z" fill="#378052"/>
<path opacity="0.77" d="M238.164 141.628L143.169 160.644L143.365 161.625L238.361 142.608L238.164 141.628Z" fill="#378052"/>
<path opacity="0.82" d="M192.445 481.553L191.56 482.019L237.817 569.864L238.702 569.399L192.445 481.553Z" fill="#378052"/>
<path opacity="0.89" d="M254.1 481.26H192.01V482.26H254.1V481.26Z" fill="#378052"/>
<path opacity="0.78" d="M147.682 277.929L62.1536 357.854L62.8363 358.584L148.365 278.66L147.682 277.929Z" fill="#378052"/>
<path opacity="0.84" d="M96.159 262.623L62.0842 358.105L63.0261 358.441L97.1008 262.959L96.159 262.623Z" fill="#378052"/>
<path opacity="0.86" d="M96.7994 262.309L96.5105 263.266L147.873 278.764L148.162 277.806L96.7994 262.309Z" fill="#378052"/>
<path opacity="0.85" d="M143.149 160.629L75.8618 176.485L76.0912 177.459L143.378 161.602L143.149 160.629Z" fill="#378052"/>
<path opacity="0.79" d="M131.501 442.897L56.8574 463.065L57.1183 464.031L131.762 443.863L131.501 442.897Z" fill="#378052"/>
<path opacity="0.84" d="M132.092 443.218L131.16 443.581L151.32 495.343L152.252 494.98L132.092 443.218Z" fill="#378052"/>
<path opacity="0.86" d="M57.3176 463.157L56.6274 463.88L142.131 545.419L142.822 544.695L57.3176 463.157Z" fill="#378052"/>
<path opacity="0.86" d="M57.1298 463.04L56.8135 463.988L151.632 495.604L151.948 494.655L57.1298 463.04Z" fill="#378052"/>
<path opacity="0.6" d="M76.4614 176.809L75.4893 177.043L96.1751 262.875L97.1472 262.641L76.4614 176.809Z" fill="#378052"/>
<path opacity="0.85" d="M153.243 216.134L96.3352 262.382L96.9659 263.158L153.873 216.91L153.243 216.134Z" fill="#378052"/>
<path opacity="0.79" d="M76.2023 176.498L75.7478 177.389L153.334 216.972L153.788 216.081L76.2023 176.498Z" fill="#378052"/>
<path opacity="0.8" d="M142.87 545.39L142.08 544.77L191.61 481.46L192.4 482.08L142.87 545.39Z" fill="#378052"/>
<path opacity="0.84" d="M191.875 481.271L151.65 494.645L151.965 495.593L192.191 482.22L191.875 481.271Z" fill="#378052"/>
<path opacity="0.78" d="M153.073 216.478L147.508 278.228L148.504 278.317L154.069 216.568L153.073 216.478Z" fill="#378052"/>
<path opacity="0.75" d="M219.722 213.784L147.686 277.92L148.351 278.667L220.387 214.53L219.722 213.784Z" fill="#378052"/>
<path opacity="0.85" d="M112.887 383.4L111.935 383.706L131.173 443.518L132.125 443.212L112.887 383.4Z" fill="#378052"/>
<path opacity="0.78" d="M169.85 327.81L112.03 383.199L112.722 383.921L170.542 328.532L169.85 327.81Z" fill="#378052"/>
<path opacity="0.87" d="M201.811 369.6L112.347 383.05L112.495 384.039L201.96 370.589L201.811 369.6Z" fill="#378052"/>
<path opacity="0.71" d="M143.537 160.684L142.969 161.506L219.764 214.543L220.333 213.721L143.537 160.684Z" fill="#378052"/>
<path opacity="0.9" d="M143.756 161.025L142.773 161.208L153.063 216.62L154.046 216.438L143.756 161.025Z" fill="#378052"/>
<path opacity="0.9" d="M220.039 213.642L153.542 216.045L153.579 217.045L220.075 214.641L220.039 213.642Z" fill="#378052"/>
<path opacity="0.81" d="M201.478 369.818L131.258 443.094L131.98 443.786L202.2 370.51L201.478 369.818Z" fill="#378052"/>
<path opacity="0.79" d="M223.565 420.507L191.558 481.499L192.443 481.963L224.451 420.972L223.565 420.507Z" fill="#378052"/>
<path opacity="0.78" d="M131.892 442.967L131.356 443.811L191.732 482.186L192.269 481.342L131.892 442.967Z" fill="#378052"/>
<path opacity="0.77" d="M223.885 420.323L131.487 442.916L131.724 443.887L224.122 421.295L223.885 420.323Z" fill="#378052"/>
<path opacity="0.81" d="M170.582 327.885L169.784 328.487L201.451 370.449L202.249 369.847L170.582 327.885Z" fill="#378052"/>
<path opacity="0.86" d="M148.468 278.093L147.554 278.5L169.719 328.376L170.632 327.97L148.468 278.093Z" fill="#378052"/>
<path opacity="0.85" d="M148.063 277.78L147.963 278.775L235.049 287.483L235.149 286.488L148.063 277.78Z" fill="#378052"/>
<path opacity="0.77" d="M234.839 286.614L169.9 327.747L170.435 328.591L235.374 287.459L234.839 286.614Z" fill="#378052"/>
<path opacity="0.73" d="M202.31 369.919L201.394 370.32L223.56 420.984L224.476 420.583L202.31 369.919Z" fill="#378052"/>
<path opacity="0.82" d="M234.619 286.791L201.4 369.93L202.328 370.301L235.548 287.162L234.619 286.791Z" fill="#378052"/>
<path opacity="0.89" d="M235.501 286.721L234.709 287.333L282.999 349.88L283.791 349.269L235.501 286.721Z" fill="#378052"/>
<path opacity="0.88" d="M283.272 349.027L201.742 369.658L201.987 370.627L283.517 349.997L283.272 349.027Z" fill="#378052"/>
<path opacity="0.88" d="M220.549 214.054L219.569 214.256L234.612 287.089L235.592 286.886L220.549 214.054Z" fill="#378052"/>
<path opacity="0.84" d="M309.98 294.49L219.73 214.53L220.39 213.78L310.64 293.74L309.98 294.49Z" fill="#378052"/>
<path opacity="0.82" d="M235.132 286.48L235.038 287.475L310.251 294.598L310.346 293.603L235.132 286.48Z" fill="#378052"/>
<path opacity="0.76" d="M237.814 142.009L219.585 214.049L220.555 214.294L238.783 142.255L237.814 142.009Z" fill="#378052"/>
<path opacity="0.79" d="M220.268 213.703L219.849 214.611L338.614 269.463L339.033 268.555L220.268 213.703Z" fill="#378052"/>
<path opacity="0.76" d="M238.415 141.648L238.156 142.614L397.282 185.37L397.541 184.405L238.415 141.648Z" fill="#378052"/>
<path opacity="0.81" d="M238.674 141.826L237.891 142.447L338.439 269.352L339.222 268.731L238.674 141.826Z" fill="#378052"/>
<path opacity="0.72" d="M495.08 247.4L494.51 247.04L396.25 184.73L397.24 184.39L524.01 141.34L495.08 247.4ZM398.55 185L494.47 245.83L522.54 142.89L398.54 185H398.55Z" fill="#378052"/>
<path opacity="0.89" d="M397.655 184.441L397.12 185.286L494.501 247.038L495.036 246.193L397.655 184.441Z" fill="#378052"/>
<path opacity="0.82" d="M224.486 420.533L223.589 420.976L253.677 481.935L254.574 481.492L224.486 420.533Z" fill="#378052"/>
<path opacity="0.82" d="M283.041 349.234L223.608 420.44L224.376 421.081L283.808 349.875L283.041 349.234Z" fill="#378052"/>
<path opacity="0.76" d="M224.139 420.301L223.912 421.275L355.296 451.873L355.523 450.899L224.139 420.301Z" fill="#378052"/>
<path opacity="0.89" d="M283.805 349.243L282.988 349.82L354.993 451.667L355.81 451.09L283.805 349.243Z" fill="#378052"/>
<path opacity="0.81" d="M374.278 432.282L355.053 451.082L355.752 451.797L374.977 432.996L374.278 432.282Z" fill="#378052"/>
<path opacity="0.84" d="M253.631 481.68L237.758 569.548L238.742 569.726L254.615 481.858L253.631 481.68Z" fill="#378052"/>
<path opacity="0.77" d="M338.815 268.495L338.769 269.494L419.503 273.216L419.549 272.217L338.815 268.495Z" fill="#378052"/>
<path opacity="0.76" d="M397.885 184.725L396.916 184.969L419.086 272.846L420.056 272.601L397.885 184.725Z" fill="#378052"/>
<path opacity="0.72" d="M397.023 184.637L338.426 268.76L339.246 269.331L397.844 185.208L397.023 184.637Z" fill="#378052"/>
<path opacity="0.72" d="M522.84 355.707L483.289 442.016L484.198 442.433L523.749 356.124L522.84 355.707Z" fill="#378052"/>
<path opacity="0.63" d="M523.007 355.368L485.021 378.355L485.539 379.211L523.525 356.224L523.007 355.368Z" fill="#378052"/>
<path opacity="0.72" d="M355.264 450.868L253.974 481.256L254.261 482.214L355.551 451.826L355.264 450.868Z" fill="#378052"/>
<path opacity="0.65" d="M355.892 451.165L354.951 451.503L379.537 519.867L380.478 519.528L355.892 451.165Z" fill="#378052"/>
<path opacity="0.7" d="M254.324 481.272L253.858 482.157L375.777 546.274L376.242 545.389L254.324 481.272Z" fill="#378052"/>
<path opacity="0.85" d="M254.248 481.28L253.959 482.238L379.837 520.243L380.126 519.285L254.248 481.28Z" fill="#378052"/>
<path opacity="0.69" d="M339.219 268.699L338.427 269.31L401.751 351.418L402.543 350.807L339.219 268.699Z" fill="#378052"/>
<path opacity="0.65" d="M338.498 268.641L309.967 293.725L310.627 294.476L339.159 269.392L338.498 268.641Z" fill="#378052"/>
<path opacity="0.61" d="M283.724 349.133L283.051 349.873L374.292 432.925L374.965 432.185L283.724 349.133Z" fill="#378052"/>
<path opacity="0.62" d="M309.898 293.94L282.967 349.352L283.866 349.789L310.797 294.377L309.898 293.94Z" fill="#378052"/>
<path opacity="0.66" d="M310.582 293.706L310.054 294.555L401.889 351.562L402.417 350.712L310.582 293.706Z" fill="#378052"/>
<path opacity="0.74" d="M283.376 349.02L283.363 350.02L402.112 351.595L402.125 350.595L283.376 349.02Z" fill="#378052"/>
<path opacity="0.61" d="M483.368 441.796L379.685 519.417L380.284 520.218L483.968 442.596L483.368 441.796Z" fill="#378052"/>
<path opacity="0.72" d="M375.127 432.562L374.129 432.624L379.475 519.78L380.473 519.719L375.127 432.562Z" fill="#378052"/>
<path opacity="0.7" d="M495.256 246.501L494.288 246.753L522.787 356.008L523.755 355.755L495.256 246.501Z" fill="#378052"/>
<path opacity="0.7" d="M419.861 272.312L419.236 273.093L522.948 356.212L523.574 355.432L419.861 272.312Z" fill="#378052"/>
<path opacity="0.8" d="M494.613 246.124L419.403 272.255L419.732 273.2L494.941 247.068L494.613 246.124Z" fill="#378052"/>
<path opacity="0.66" d="M484.731 378.788L483.128 442.118L484.127 442.143L485.73 378.813L484.731 378.788Z" fill="#378052"/>
<path opacity="0.71" d="M374.642 432.072L374.555 433.068L483.617 442.629L483.704 441.633L374.642 432.072Z" fill="#378052"/>
<path opacity="0.73" d="M401.674 350.929L374.13 432.398L375.077 432.719L402.621 351.249L401.674 350.929Z" fill="#378052"/>
<path opacity="0.74" d="M485.048 378.353L374.431 432.161L374.869 433.06L485.486 379.252L485.048 378.353Z" fill="#378052"/>
<path opacity="0.63" d="M419.089 272.646L401.684 351.027L402.66 351.244L420.065 272.863L419.089 272.646Z" fill="#378052"/>
<path opacity="0.61" d="M419.996 272.524L419.146 273.05L484.849 379.143L485.699 378.616L419.996 272.524Z" fill="#378052"/>
<path opacity="0.6" d="M402.264 350.6L401.948 351.549L485.074 379.25L485.39 378.301L402.264 350.6Z" fill="#378052"/>
<path d="M24.1499 272.74C24.1499 275.16 22.1899 277.13 19.7599 277.13C17.3299 277.13 15.3699 275.17 15.3699 272.74C15.3699 270.31 17.3299 268.35 19.7599 268.35C22.1899 268.35 24.1499 270.31 24.1499 272.74Z" fill="#378052"/>
<path d="M22.4498 272.74C22.4498 274.22 21.2498 275.43 19.7598 275.43C18.2698 275.43 17.0698 274.23 17.0698 272.74C17.0698 271.25 18.2698 270.05 19.7598 270.05C21.2498 270.05 22.4498 271.25 22.4498 272.74Z" fill="#256B3F"/>
<path d="M26.0998 412.9C29.176 412.9 31.6698 410.406 31.6698 407.33C31.6698 404.254 29.176 401.76 26.0998 401.76C23.0236 401.76 20.5298 404.254 20.5298 407.33C20.5298 410.406 23.0236 412.9 26.0998 412.9Z" fill="#378052"/>
<path d="M29.5097 407.33C29.5097 409.22 27.9797 410.75 26.0997 410.75C24.2197 410.75 22.6897 409.22 22.6897 407.33C22.6897 405.44 24.2197 403.91 26.0997 403.91C27.9797 403.91 29.5097 405.44 29.5097 407.33Z" fill="#256B3F"/>
<path d="M60.68 463.54C60.68 465.59 59.02 467.25 56.97 467.25C54.92 467.25 53.27 465.59 53.27 463.54C53.27 461.49 54.93 459.83 56.97 459.83C59.01 459.83 60.68 461.49 60.68 463.54Z" fill="#378052"/>
<path d="M59.24 463.54C59.24 464.79 58.22 465.81 56.97 465.81C55.72 465.81 54.7 464.79 54.7 463.54C54.7 462.29 55.72 461.27 56.97 461.27C58.22 461.27 59.24 462.29 59.24 463.54Z" fill="#256B3F"/>
<path d="M68.0098 358.24C68.0098 361.28 65.5498 363.74 62.5198 363.74C59.4898 363.74 57.0298 361.28 57.0298 358.24C57.0298 355.2 59.4898 352.74 62.5198 352.74C65.5498 352.74 68.0098 355.2 68.0098 358.24Z" fill="#378052"/>
<path d="M65.8799 358.24C65.8799 360.1 64.3699 361.61 62.5099 361.61C60.6499 361.61 59.1399 360.1 59.1399 358.24C59.1399 356.38 60.6499 354.87 62.5099 354.87C64.3699 354.87 65.8799 356.38 65.8799 358.24Z" fill="#256B3F"/>
<path d="M79.9799 176.95C79.9799 179.16 78.19 180.96 75.97 180.96C73.75 180.96 71.96 179.17 71.96 176.95C71.96 174.73 73.75 172.94 75.97 172.94C78.19 172.94 79.9799 174.73 79.9799 176.95Z" fill="#378052"/>
<path d="M78.43 176.95C78.43 178.31 77.33 179.41 75.98 179.41C74.63 179.41 73.53 178.31 73.53 176.95C73.53 175.59 74.63 174.49 75.98 174.49C77.33 174.49 78.43 175.59 78.43 176.95Z" fill="#256B3F"/>
<path d="M103.27 262.79C103.27 266.45 100.31 269.41 96.6498 269.41C92.9898 269.41 90.0298 266.45 90.0298 262.79C90.0298 259.13 92.9898 256.17 96.6498 256.17C100.31 256.17 103.27 259.13 103.27 262.79Z" fill="#378052"/>
<path d="M100.71 262.79C100.71 265.03 98.8899 266.85 96.6599 266.85C94.4299 266.85 92.6099 265.03 92.6099 262.79C92.6099 260.55 94.4299 258.73 96.6599 258.73C98.8899 258.73 100.71 260.55 100.71 262.79Z" fill="#256B3F"/>
<path d="M117.3 383.58C117.3 386.29 115.1 388.49 112.39 388.49C109.68 388.49 107.48 386.29 107.48 383.58C107.48 380.87 109.68 378.67 112.39 378.67C115.1 378.67 117.3 380.87 117.3 383.58Z" fill="#378052"/>
<path d="M115.4 383.58C115.4 385.24 114.05 386.59 112.39 386.59C110.73 386.59 109.38 385.24 109.38 383.58C109.38 381.92 110.73 380.57 112.39 380.57C114.05 380.57 115.4 381.92 115.4 383.58Z" fill="#256B3F"/>
<path d="M136.04 443.4C136.04 445.84 134.06 447.82 131.62 447.82C129.18 447.82 127.2 445.84 127.2 443.4C127.2 440.96 129.18 438.98 131.62 438.98C134.06 438.98 136.04 440.96 136.04 443.4Z" fill="#378052"/>
<path d="M134.33 443.4C134.33 444.89 133.12 446.11 131.62 446.11C130.12 446.11 128.91 444.9 128.91 443.4C128.91 441.9 130.12 440.69 131.62 440.69C133.12 440.69 134.33 441.9 134.33 443.4Z" fill="#256B3F"/>
<path d="M146.54 161.12C146.54 162.93 145.07 164.4 143.26 164.4C141.45 164.4 139.98 162.93 139.98 161.12C139.98 159.31 141.45 157.84 143.26 157.84C145.07 157.84 146.54 159.31 146.54 161.12Z" fill="#378052"/>
<path d="M143.27 163.13C144.38 163.13 145.28 162.23 145.28 161.12C145.28 160.01 144.38 159.11 143.27 159.11C142.16 159.11 141.26 160.01 141.26 161.12C141.26 162.23 142.16 163.13 143.27 163.13Z" fill="#256B3F"/>
<path d="M153.18 278.28C153.18 281.13 150.87 283.44 148.02 283.44C145.17 283.44 142.86 281.13 142.86 278.28C142.86 275.43 145.17 273.12 148.02 273.12C150.87 273.12 153.18 275.43 153.18 278.28Z" fill="#378052"/>
<path d="M151.18 278.28C151.18 280.03 149.76 281.44 148.02 281.44C146.28 281.44 144.86 280.02 144.86 278.28C144.86 276.54 146.28 275.12 148.02 275.12C149.76 275.12 151.18 276.54 151.18 278.28Z" fill="#256B3F"/>
<path d="M159.96 216.53C159.96 220.06 157.1 222.93 153.56 222.93C150.02 222.93 147.16 220.06 147.16 216.53C147.16 213 150.02 210.13 153.56 210.13C157.1 210.13 159.96 213 159.96 216.53Z" fill="#378052"/>
<path d="M157.48 216.53C157.48 218.7 155.73 220.45 153.56 220.45C151.39 220.45 149.64 218.69 149.64 216.53C149.64 214.37 151.39 212.61 153.56 212.61C155.73 212.61 157.48 214.37 157.48 216.53Z" fill="#256B3F"/>
<path d="M175.24 328.16C175.24 330.95 172.98 333.21 170.19 333.21C167.4 333.21 165.14 330.95 165.14 328.16C165.14 325.37 167.4 323.11 170.19 323.11C172.98 323.11 175.24 325.37 175.24 328.16Z" fill="#378052"/>
<path d="M173.28 328.16C173.28 329.87 171.89 331.26 170.19 331.26C168.49 331.26 167.1 329.87 167.1 328.16C167.1 326.45 168.49 325.06 170.19 325.06C171.89 325.06 173.28 326.45 173.28 328.16Z" fill="#256B3F"/>
<path d="M197.26 481.77C197.26 484.67 194.91 487.03 192 487.03C189.09 487.03 186.74 484.68 186.74 481.77C186.74 478.86 189.09 476.51 192 476.51C194.91 476.51 197.26 478.86 197.26 481.77Z" fill="#378052"/>
<path d="M195.23 481.77C195.23 483.55 193.79 484.99 192.01 484.99C190.23 484.99 188.79 483.55 188.79 481.77C188.79 479.99 190.23 478.55 192.01 478.55C193.79 478.55 195.23 479.99 195.23 481.77Z" fill="#256B3F"/>
<path d="M201.85 375.39C204.76 375.39 207.12 373.03 207.12 370.12C207.12 367.209 204.76 364.85 201.85 364.85C198.939 364.85 196.58 367.209 196.58 370.12C196.58 373.03 198.939 375.39 201.85 375.39Z" fill="#378052"/>
<path d="M205.08 370.12C205.08 371.9 203.63 373.35 201.85 373.35C200.07 373.35 198.62 371.9 198.62 370.12C198.62 368.34 200.07 366.89 201.85 366.89C203.63 366.89 205.08 368.34 205.08 370.12Z" fill="#256B3F"/>
<path d="M226.49 214.16C226.49 217.71 223.61 220.59 220.06 220.59C216.51 220.59 213.63 217.71 213.63 214.16C213.63 210.61 216.51 207.73 220.06 207.73C223.61 207.73 226.49 210.61 226.49 214.16Z" fill="#378052"/>
<path d="M220.06 218.1C222.236 218.1 224 216.336 224 214.16C224 211.984 222.236 210.22 220.06 210.22C217.884 210.22 216.12 211.984 216.12 214.16C216.12 216.336 217.884 218.1 220.06 218.1Z" fill="#256B3F"/>
<path d="M227.34 420.79C227.34 422.63 225.85 424.12 224.02 424.12C222.19 424.12 220.69 422.63 220.69 420.79C220.69 418.95 222.18 417.46 224.02 417.46C225.86 417.46 227.34 418.95 227.34 420.79Z" fill="#378052"/>
<path d="M224.02 422.83C225.147 422.83 226.06 421.917 226.06 420.79C226.06 419.663 225.147 418.75 224.02 418.75C222.893 418.75 221.98 419.663 221.98 420.79C221.98 421.917 222.893 422.83 224.02 422.83Z" fill="#256B3F"/>
<path d="M238.6 286.99C238.6 288.92 237.03 290.49 235.1 290.49C233.17 290.49 231.6 288.92 231.6 286.99C231.6 285.06 233.17 283.49 235.1 283.49C237.03 283.49 238.6 285.06 238.6 286.99Z" fill="#378052"/>
<path d="M237.25 286.99C237.25 288.17 236.29 289.13 235.11 289.13C233.93 289.13 232.97 288.17 232.97 286.99C232.97 285.81 233.93 284.85 235.11 284.85C236.29 284.85 237.25 285.81 237.25 286.99Z" fill="#256B3F"/>
<path d="M238.27 145.54C240.159 145.54 241.69 144.009 241.69 142.12C241.69 140.231 240.159 138.7 238.27 138.7C236.381 138.7 234.85 140.231 234.85 142.12C234.85 144.009 236.381 145.54 238.27 145.54Z" fill="#378052"/>
<path d="M238.27 144.22C239.43 144.22 240.37 143.279 240.37 142.12C240.37 140.96 239.43 140.02 238.27 140.02C237.11 140.02 236.17 140.96 236.17 142.12C236.17 143.279 237.11 144.22 238.27 144.22Z" fill="#256B3F"/>
<path d="M259.17 481.75C259.17 484.55 256.9 486.82 254.1 486.82C251.3 486.82 249.03 484.55 249.03 481.75C249.03 478.95 251.3 476.68 254.1 476.68C256.9 476.68 259.17 478.95 259.17 481.75Z" fill="#378052"/>
<path d="M257.21 481.75C257.21 483.47 255.82 484.86 254.11 484.86C252.4 484.86 251.01 483.47 251.01 481.75C251.01 480.03 252.4 478.64 254.11 478.64C255.82 478.64 257.21 480.03 257.21 481.75Z" fill="#256B3F"/>
<path d="M287.64 349.54C287.64 351.88 285.74 353.79 283.4 353.79C281.06 353.79 279.16 351.89 279.16 349.54C279.16 347.19 281.06 345.29 283.4 345.29C285.74 345.29 287.64 347.19 287.64 349.54Z" fill="#378052"/>
<path d="M285.99 349.54C285.99 350.98 284.83 352.14 283.39 352.14C281.95 352.14 280.79 350.98 280.79 349.54C280.79 348.1 281.95 346.94 283.39 346.94C284.83 346.94 285.99 348.1 285.99 349.54Z" fill="#256B3F"/>
<path d="M316.14 294.12C316.14 297.34 313.53 299.95 310.31 299.95C307.09 299.95 304.48 297.34 304.48 294.12C304.48 290.9 307.09 288.29 310.31 288.29C313.53 288.29 316.14 290.9 316.14 294.12Z" fill="#378052"/>
<path d="M313.88 294.12C313.88 296.09 312.28 297.69 310.31 297.69C308.34 297.69 306.74 296.09 306.74 294.12C306.74 292.15 308.34 290.55 310.31 290.55C312.28 290.55 313.88 292.15 313.88 294.12Z" fill="#256B3F"/>
<path d="M344.27 269.01C344.27 272.02 341.83 274.46 338.82 274.46C335.81 274.46 333.37 272.02 333.37 269.01C333.37 266 335.81 263.56 338.82 263.56C341.83 263.56 344.27 266 344.27 269.01Z" fill="#378052"/>
<path d="M342.16 269.01C342.16 270.85 340.67 272.35 338.82 272.35C336.97 272.35 335.48 270.86 335.48 269.01C335.48 267.16 336.97 265.67 338.82 265.67C340.67 265.67 342.16 267.16 342.16 269.01Z" fill="#256B3F"/>
<path d="M358.74 451.38C358.74 453.22 357.24 454.72 355.4 454.72C353.56 454.72 352.06 453.22 352.06 451.38C352.06 449.54 353.56 448.04 355.4 448.04C357.24 448.04 358.74 449.54 358.74 451.38Z" fill="#378052"/>
<path d="M355.4 453.43C356.532 453.43 357.45 452.512 357.45 451.38C357.45 450.248 356.532 449.33 355.4 449.33C354.268 449.33 353.35 450.248 353.35 451.38C353.35 452.512 354.268 453.43 355.4 453.43Z" fill="#256B3F"/>
<path d="M380.11 432.59C380.11 435.61 377.66 438.07 374.63 438.07C371.6 438.07 369.15 435.62 369.15 432.59C369.15 429.56 371.6 427.11 374.63 427.11C377.66 427.11 380.11 429.56 380.11 432.59Z" fill="#378052"/>
<path d="M377.99 432.59C377.99 434.44 376.49 435.95 374.63 435.95C372.77 435.95 371.27 434.45 371.27 432.59C371.27 430.73 372.77 429.23 374.63 429.23C376.49 429.23 377.99 430.73 377.99 432.59Z" fill="#256B3F"/>
<path d="M400.72 184.87C400.72 186.71 399.23 188.2 397.4 188.2C395.57 188.2 394.07 186.71 394.07 184.87C394.07 183.03 395.56 181.54 397.4 181.54C399.24 181.54 400.72 183.03 400.72 184.87Z" fill="#378052"/>
<path d="M399.43 184.87C399.43 186 398.52 186.91 397.39 186.91C396.26 186.91 395.35 186 395.35 184.87C395.35 183.74 396.26 182.83 397.39 182.83C398.52 182.83 399.43 183.74 399.43 184.87Z" fill="#256B3F"/>
<path d="M402.15 355.36C404.492 355.36 406.39 353.462 406.39 351.12C406.39 348.778 404.492 346.88 402.15 346.88C399.808 346.88 397.91 348.778 397.91 351.12C397.91 353.462 399.808 355.36 402.15 355.36Z" fill="#378052"/>
<path d="M402.15 353.72C403.586 353.72 404.75 352.556 404.75 351.12C404.75 349.684 403.586 348.52 402.15 348.52C400.714 348.52 399.55 349.684 399.55 351.12C399.55 352.556 400.714 353.72 402.15 353.72Z" fill="#256B3F"/>
<path d="M423.47 272.74C423.47 274.9 421.72 276.65 419.56 276.65C417.4 276.65 415.65 274.9 415.65 272.74C415.65 270.58 417.4 268.83 419.56 268.83C421.72 268.83 423.47 270.58 423.47 272.74Z" fill="#378052"/>
<path d="M421.96 272.74C421.96 274.06 420.89 275.14 419.56 275.14C418.23 275.14 417.16 274.07 417.16 272.74C417.16 271.41 418.23 270.34 419.56 270.34C420.89 270.34 421.96 271.41 421.96 272.74Z" fill="#256B3F"/>
<path d="M487.35 442.16C487.35 444.18 485.71 445.82 483.69 445.82C481.67 445.82 480.03 444.18 480.03 442.16C480.03 440.14 481.67 438.5 483.69 438.5C485.71 438.5 487.35 440.14 487.35 442.16Z" fill="#378052"/>
<path d="M483.69 444.4C484.927 444.4 485.93 443.397 485.93 442.16C485.93 440.923 484.927 439.92 483.69 439.92C482.453 439.92 481.45 440.923 481.45 442.16C481.45 443.397 482.453 444.4 483.69 444.4Z" fill="#256B3F"/>
<path d="M489.69 378.83C489.69 381.27 487.71 383.25 485.27 383.25C482.83 383.25 480.85 381.27 480.85 378.83C480.85 376.39 482.83 374.41 485.27 374.41C487.71 374.41 489.69 376.39 489.69 378.83Z" fill="#378052"/>
<path d="M487.98 378.83C487.98 380.33 486.77 381.54 485.27 381.54C483.77 381.54 482.56 380.33 482.56 378.83C482.56 377.33 483.77 376.12 485.27 376.12C486.77 376.12 487.98 377.33 487.98 378.83Z" fill="#256B3F"/>
<path d="M499.98 246.62C499.98 249.5 497.65 251.83 494.77 251.83C491.89 251.83 489.56 249.5 489.56 246.62C489.56 243.74 491.89 241.41 494.77 241.41C497.65 241.41 499.98 243.74 499.98 246.62Z" fill="#378052"/>
<path d="M497.96 246.62C497.96 248.38 496.53 249.81 494.77 249.81C493.01 249.81 491.58 248.38 491.58 246.62C491.58 244.86 493.01 243.43 494.77 243.43C496.53 243.43 497.96 244.86 497.96 246.62Z" fill="#256B3F"/>
<path d="M523.27 145.6C525.192 145.6 526.75 144.042 526.75 142.12C526.75 140.198 525.192 138.64 523.27 138.64C521.348 138.64 519.79 140.198 519.79 142.12C519.79 144.042 521.348 145.6 523.27 145.6Z" fill="#378052"/>
<path d="M523.27 144.25C524.446 144.25 525.4 143.296 525.4 142.12C525.4 140.943 524.446 139.99 523.27 139.99C522.094 139.99 521.14 140.943 521.14 142.12C521.14 143.296 522.094 144.25 523.27 144.25Z" fill="#256B3F"/>
<path d="M523.27 360.11C525.611 360.11 527.51 358.212 527.51 355.87C527.51 353.528 525.611 351.63 523.27 351.63C520.928 351.63 519.03 353.528 519.03 355.87C519.03 358.212 520.928 360.11 523.27 360.11Z" fill="#378052"/>
<path d="M523.27 358.47C524.706 358.47 525.87 357.306 525.87 355.87C525.87 354.434 524.706 353.27 523.27 353.27C521.834 353.27 520.67 354.434 520.67 355.87C520.67 357.306 521.834 358.47 523.27 358.47Z" fill="#256B3F"/>
</g>
<defs>
<clipPath id="clip0_1149_46032">
<rect width="712.3" height="713.74" fill="white" transform="translate(-119)"/>
</clipPath>
</defs>
</svg>
